# xmcd CD database file
#
# Track frame offsets:
#	150
#	14020
#	29619
#	54265
#	68711
#	90112
#	104034
#	121565
#	137474
#	148310
#	181118
#	202736
#	216568
#	241765
#	279502
#
# Disc length: 4122 seconds
#
# Revision: 0
# Processed by: cddbd v1.5.2PL0 Copyright (c) Steve Scherf et al.
# Submitted via: CDex 1.70beta2
#
DISCID=cf10180f
DTITLE=Susan Tedeschi - The Best of Susan Tedeschi: Episode Two
DYEAR=2007
DGENRE=Jazz
TTITLE0=Can't I Leave You Alone
TTITLE1=I Fell In Love
TTITLE2=Angel From Montgomery
TTITLE3=Hampmotized
TTITLE4=Mama He Treats Your Daughter Mean
TTITLE5=Wrapped In The Arms Of Another
TTITLE6=Friar's Point
TTITLE7=Till I Found You
TTITLE8=Found Someone New
TTITLE9=The Feeling Music Brings
TTITLE10=Wait For Me
TTITLE11=Blues On A Holiday
TTITLE12=Voodoo Woman (Live)
TTITLE13=Lost Lover Blues (Live)
TTITLE14=Angel From Montgomery (Live)
EXTD=YEAR: 2007
EXTT0=
EXTT1=
EXTT2=
EXTT3=
EXTT4=
EXTT5=
EXTT6=
EXTT7=
EXTT8=
EXTT9=
EXTT10=
EXTT11=
EXTT12=
EXTT13=
EXTT14=
PLAYORDER=
